<?xml version="1.0" standalone="no"?>
<!DOCTYPE svg PUBLIC "-//W3C//DTD SVG 20010904//EN"
 "http://www.w3.org/TR/2001/REC-SVG-20010904/DTD/svg10.dtd">
<svg version="1.0" xmlns="http://www.w3.org/2000/svg"
 width="326.000000pt" height="326.000000pt" viewBox="0 0 326.000000 326.000000"
 preserveAspectRatio="xMidYMid meet">
<metadata>
Created by potrace 1.11, written by Peter Selinger 2001-2013
</metadata>
<g transform="translate(0.000000,326.000000) scale(0.100000,-0.100000)"
fill="#000000" stroke="none">
<path d="M393 2633 c4 -6 -2 -13 -13 -16 -11 -3 -20 -2 -20 1 0 12 -104 4
-108 -7 -2 -6 -7 -9 -11 -7 -4 3 -8 -1 -8 -9 0 -8 4 -12 8 -9 4 2 7 -5 6 -16
-1 -11 -6 -20 -11 -20 -6 0 -5 -5 2 -12 8 -8 9 -15 1 -25 -7 -7 -8 -13 -4 -13
4 0 1 -8 -6 -17 -10 -11 -10 -14 -1 -9 16 9 16 -6 0 -23 -10 -11 -10 -13 0 -7
6 4 12 2 12 -3 0 -6 -4 -11 -9 -11 -5 0 -12 -7 -15 -16 -5 -14 -4 -15 8 -5 11
10 14 5 13 -28 -1 -32 -3 -38 -14 -29 -11 8 -12 7 -7 -6 3 -9 10 -16 15 -16 6
0 8 -18 5 -40 -3 -24 -1 -40 5 -40 6 0 3 -7 -5 -16 -17 -17 -21 -28 -7 -20 5
4 8 -9 7 -26 -1 -21 -6 -32 -14 -30 -10 2 -10 -2 -1 -20 15 -28 20 -108 7
-108 -5 0 -6 6 -2 13 4 6 3 9 -1 4 -5 -4 -9 -16 -10 -28 -1 -13 2 -16 9 -9 14
14 29 13 19 -2 -10 -17 -10 -49 0 -70 5 -12 1 -24 -13 -38 -11 -11 -20 -23
-20 -27 0 -4 5 -2 12 5 16 16 33 16 21 0 -6 -7 -9 -30 -9 -50 1 -22 -3 -34 -9
-31 -5 2 -1 -3 9 -11 16 -13 17 -16 4 -16 -9 0 -19 -7 -22 -16 -5 -14 -4 -15
8 -5 12 10 15 9 13 -7 0 -11 -6 -18 -12 -15 -7 2 -12 -3 -12 -11 0 -8 6 -12
12 -10 15 6 13 -42 -2 -57 -14 -14 -5 -42 10 -32 6 4 8 0 4 -10 -3 -9 -2 -19
4 -23 7 -4 6 -10 0 -18 -6 -7 -7 -17 -3 -22 4 -4 -1 -2 -11 5 -15 12 -17 12
-11 -3 3 -9 10 -16 15 -16 5 0 7 -27 4 -60 -2 -34 0 -62 6 -66 6 -4 4 -15 -6
-31 -10 -14 -13 -23 -7 -19 6 3 9 -21 8 -67 -1 -53 -5 -77 -18 -91 -10 -11
-16 -22 -13 -25 3 -2 11 4 19 14 12 17 13 13 12 -32 0 -28 -4 -49 -8 -46 -5 2
-8 -1 -8 -6 0 -6 5 -11 10 -11 6 0 10 -5 10 -11 0 -5 -6 -7 -12 -3 -10 6 -10
4 -2 -7 14 -18 14 -52 1 -61 -13 -8 -17 -89 -5 -82 4 3 6 18 3 34 -3 16 -1 31
4 34 5 3 7 -30 6 -74 -2 -53 1 -79 8 -77 6 1 11 -2 12 -8 0 -5 9 -25 19 -44
16 -29 16 -38 6 -55 -12 -19 -12 -20 4 -7 20 17 66 24 66 10 0 -5 -9 -18 -20
-29 -11 -11 -16 -20 -12 -20 15 0 52 46 45 55 -5 4 -3 5 4 2 8 -5 8 -15 0 -36
-6 -17 -16 -27 -21 -24 -6 4 -7 2 -3 -2 16 -18 35 -13 30 9 -4 17 -3 18 6 6 6
-8 11 -10 11 -4 0 18 29 12 36 -8 3 -11 12 -17 19 -15 7 3 18 0 24 -6 9 -9 11
-8 6 3 -6 18 30 26 40 9 4 -5 10 -7 14 -4 5 2 7 -14 5 -36 -2 -23 1 -37 7 -34
8 6 13 -8 10 -28 -1 -5 3 -6 8 -2 6 3 8 13 5 23 -5 15 -5 15 6 -1 6 -9 9 -21
6 -25 -2 -4 4 -9 15 -9 10 -1 19 3 19 8 0 6 -4 8 -9 5 -5 -3 -11 1 -15 9 -3 8
0 17 6 21 6 4 8 3 4 -4 -7 -12 13 -21 31 -14 7 2 10 9 7 16 -3 6 1 3 9 -6 8
-10 18 -14 22 -10 5 4 5 1 1 -6 -4 -7 -1 -12 9 -12 9 0 13 -5 10 -10 -5 -8
-11 -7 -21 1 -11 9 -14 9 -14 0 0 -7 -5 -9 -11 -5 -8 4 -7 9 2 15 10 6 10 9 2
9 -7 0 -17 -8 -22 -19 -9 -16 -7 -18 20 -15 22 3 28 0 23 -9 -4 -6 2 -4 13 6
23 20 34 22 29 4 -1 -6 -1 -9 1 -4 3 4 9 7 14 7 6 0 7 -6 3 -12 -6 -10 -5 -10
8 -1 8 7 19 9 23 5 5 -4 5 -1 0 7 -5 9 -3 12 6 9 8 -3 13 -11 11 -17 -1 -6 2
-11 8 -11 5 0 10 7 10 15 0 20 18 19 22 0 2 -13 5 -12 15 4 9 15 10 22 1 27
-7 4 -8 3 -4 -4 4 -7 2 -12 -3 -12 -6 0 -11 5 -11 11 0 6 -5 7 -12 2 -22 -13
-87 -11 -100 4 -9 11 -8 13 3 11 8 -2 13 2 12 9 -2 7 4 10 12 6 13 -5 13 -7
-2 -19 -17 -14 -17 -14 2 -12 11 2 26 12 33 23 12 19 12 19 10 1 -2 -10 3 -21
10 -23 8 -3 10 2 6 14 -3 11 -2 14 3 7 4 -6 20 -10 35 -9 15 1 25 -2 22 -7 -3
-4 -1 -8 5 -8 5 0 11 4 13 9 2 5 10 2 18 -7 13 -14 12 -15 -2 -10 -10 4 -23
-2 -35 -15 -11 -14 -12 -17 -2 -10 11 9 19 9 26 2 12 -12 37 -3 29 10 -3 4 8
8 24 8 24 0 27 -3 19 -14 -7 -8 -8 -13 -1 -13 9 0 24 24 26 42 1 3 4 9 7 12 9
9 7 -28 -2 -40 -5 -7 -3 -11 6 -11 8 0 12 4 9 9 -3 4 4 8 16 8 12 0 19 -4 16
-8 -3 -5 8 -8 24 -8 16 0 27 3 24 8 -3 4 4 8 16 8 12 0 18 -4 15 -10 -3 -5 -1
-10 5 -10 7 0 10 6 7 14 -3 8 1 17 9 20 8 3 12 2 9 -3 -3 -5 0 -13 6 -17 7 -4
9 -3 6 3 -4 5 6 10 23 10 26 0 28 -3 17 -16 -11 -14 -10 -14 6 -2 16 13 20 13
28 0 7 -12 9 -12 9 1 0 13 2 13 11 0 9 -13 10 -12 5 3 -6 19 9 24 20 6 4 -8 9
-7 15 2 4 7 11 10 15 6 4 -3 1 -13 -5 -21 -9 -11 -9 -16 1 -22 7 -4 10 -3 5 1
-4 5 2 19 14 31 15 16 17 24 8 29 -8 5 -10 4 -5 -3 4 -7 2 -12 -3 -12 -6 0
-11 5 -11 11 0 6 -5 7 -12 2 -22 -13 -87 -11 -100 4 -9 11 -8 13 3 11 8 -2 13
2 12 9 -2 7 4 10 12 6 13 -5 13 -7 -2 -19 -17 -14 -17 -14 2 -12 11 2 26 12
33 23 12 19 12 19 10 1 -2 -10 3 -21 10 -23 8 -3 10 2 6 14 -3 11 -2 14 3 7 4
-6 20 -10 35 -9 15 1 25 -2 22 -7 -3 -4 -1 -8 5 -8 5 0 11 4 13 9 2 5 10 2 18
-7 13 -14 12 -15 -2 -9 -20 7 -45 -18 -27 -28 6 -4 15 -2 19 5 4 7 13 9 20 5
8 -5 11 -4 7 2 -4 5 6 10 23 10 18 0 27 -4 23 -11 -4 -6 1 -5 10 3 9 7 15 17
12 21 -3 5 -2 11 3 14 15 9 10 -28 -6 -47 -11 -12 -12 -21 -5 -28 8 -8 11 -6
10 7 -1 11 4 18 11 16 8 -1 11 2 7 8 -3 6 3 10 15 10 12 0 19 -4 16 -8 -3 -5
8 -8 24 -8 16 0 27 3 24 8 -3 4 4 8 16 8 12 0 18 -4 15 -10 -3 -5 -1 -10 5
-10 7 0 10 6 7 14 -3 8 1 17 9 20 8 3 12 2 9 -3 -3 -5 0 -13 6 -17 8 -5 9 -3
4 6 -6 10 -4 12 8 7 10 -3 24 -4 32 -1 12 5 13 9 4 21 -10 11 -9 13 2 11 8 -2
13 2 12 9 -2 7 4 10 12 6 13 -5 13 -7 -2 -19 -17 -14 -17 -14 2 -12 11 2 26
12 33 23 12 19 12 19 10 1 -2 -10 3 -21 10 -23 8 -3 10 2 6 14 -3 11 -2 14 3
7 4 -6 20 -10 35 -9 15 1 25 -2 22 -7 -3 -4 -1 -8 5 -8 5 0 11 4 13 9 2 5 10
2 18 -7 13 -14 12 -15 -2 -10 -10 4 -23 -2 -35 -15 -11 -14 -12 -17 -2 -10 11
9 19 9 26 2 12 -12 37 -3 29 10 -3 4 8 8 24 8 24 0 27 -3 19 -14 -7 -8 -8 -13
-1 -13 9 0 24 24 26 42 1 3 4 9 7 12 9 9 7 -28 -2 -40 -5 -7 -3 -11 6 -11 8 0
12 4 9 9 -3 4 4 8 16 8 12 0 19 -4 16 -8 -3 -5 8 -8 24 -8 16 0 27 3 24 8 -3
4 4 8 16 8 12 0 18 -4 15 -10 -3 -5 -1 -10 5 -10 7 0 10 6 7 14 -3 8 1 17 9
20 8 3 12 2 9 -3 -3 -5 0 -13 6 -17 7 -4 9 -3 6 3 -4 5 6 10 23 10 17 0 27 -5
23 -10 -4 -6 -1 -7 7 -2 7 4 16 2 21 -6 7 -12 9 -11 10 1 0 10 3 9 10 -5 9
-18 9 -18 5 3 -3 15 0 22 7 19 7 -3 11 -11 9 -18 -1 -9 3 -7 12 4 8 11 17 14
20 8 4 -5 2 -12 -3 -15 -10 -6 -9 -31 1 -42 4 -3 5 2 4 13 -2 10 -1 23 3 28
15 26 7 31 -45 30 -36 -2 -58 2 -66 12 -9 11 -8 13 3 11 8 -2 13 2 12 9 -2 7
4 10 12 6 13 -5 13 -7 -2 -19 -17 -14 -17 -14 2 -12 11 2 26 12 33 23 12 19
12 19 10 1 -2 -10 3 -21 10 -23 8 -3 10 1 6 14 -6 17 -6 17 8 -1 10 -13 17
-15 22 -8 4 7 13 12 19 12 8 0 8 -3 -1 -9 -10 -6 -8 -13 7 -32 17 -19 22 -21
30 -10 5 7 14 11 20 7 7 -5 9 -1 5 9 -6 14 -8 14 -24 0 -14 -12 -19 -13 -22
-3 -7 17 1 38 13 38 6 0 8 -4 4 -10 -3 -5 7 -8 22 -7 15 1 31 9 35 17 6 11 7
10 5 -5 -2 -11 -9 -19 -17 -17 -10 2 -11 0 -2 -11 7 -8 9 -17 5 -20 -3 -4 -1
-7 6 -7 8 0 11 7 7 15 -3 9 0 15 9 15 9 0 12 6 8 18 -5 14 -3 14 11 -3 10 -11
15 -15 12 -8 -4 6 -2 14 2 17 5 3 9 -5 8 -17 -1 -16 -7 -21 -21 -20 -11 1 -15
0 -8 -3 7 -3 10 -13 7 -22 -5 -15 -4 -15 6 1 6 9 16 14 22 11 7 -4 8 -2 4 4
-5 8 1 12 14 12 12 0 19 -4 16 -8 -3 -5 8 -8 24 -8 16 0 27 3 24 8 -3 4 4 8
16 8 12 0 18 -4 15 -10 -3 -5 -1 -10 5 -10 7 0 9 7 6 16 -4 12 -1 14 14 9 12
-4 20 -2 20 5 0 6 -5 8 -12 4 -7 -5 -8 -3 -3 6 8 13 7 13 -42 -7 -8 -3 -13 2
-13 13 0 16 2 17 10 4 8 -12 10 -12 10 5 0 11 4 16 8 10 10 -15 42 -12 52 5 6
10 8 4 6 -19 -1 -18 -9 -37 -17 -42 -8 -5 -9 -9 -4 -9 6 0 21 9 35 20 18 14
28 16 38 8 10 -8 11 -7 6 7 -5 12 -4 16 4 11 6 -3 13 -2 17 3 7 12 -26 7 -53
-8 -17 -9 -19 -8 -15 9 3 11 10 23 16 27 6 4 8 0 4 -10 -4 -11 -2 -14 8 -10 8
3 12 9 9 14 -3 5 1 6 9 3 20 -7 39 20 44 63 2 21 5 45 6 54 0 9 7 16 14 16 9
0 9 -5 2 -20 -6 -10 -8 -21 -5 -24 3 -4 1 -12 -4 -18 -7 -8 -4 -17 9 -29 13
-12 21 -14 26 -6 3 6 3 10 -2 9 -20 -3 -25 2 -13 15 6 8 17 14 23 12 7 -1 9
-1 5 1 -10 6 -10 24 0 21 4 -2 8 0 10 5 5 16 2 27 -9 27 -5 0 -7 -5 -3 -12 4
-7 3 -8 -5 -4 -6 4 -11 4 -10 -1 3 -20 -2 -34 -11 -28 -7 4 -4 17 7 36 11 19
21 25 27 19 6 -6 16 -4 27 6 16 14 18 14 29 -5 6 -12 8 -26 5 -31 -3 -5 -1
-11 4 -14 4 -3 7 14 6 39 -1 24 2 42 6 39 4 -2 6 -13 4 -24 -2 -13 2 -20 11
-20 11 0 14 6 9 23 -5 19 -5 20 5 4 6 -9 16 -15 22 -11 6 4 5 10 -3 15 -9 6
-10 9 -2 9 6 0 21 -12 32 -26 25 -32 28 -19 4 15 -9 14 -12 21 -5 18 6 -4 13
2 17 13 6 20 7 20 26 -2 l20 -23 -11 23 c-8 16 -8 22 0 22 6 0 8 4 5 10 -3 5
-2 10 3 10 19 0 49 61 46 91 -2 19 0 28 7 23 6 -3 8 -12 5 -19 -5 -13 19 -15
29 -2 3 4 2 5 -2 2 -9 -7 -54 58 -46 66 5 4 17 9 28 12 19 4 18 5 -2 6 -17 1
-21 7 -21 31 1 16 5 27 10 24 5 -3 7 -12 4 -19 -5 -14 18 -14 31 0 5 4 2 5 -6
0 -11 -6 -13 -4 -8 9 4 9 3 14 -2 11 -12 -7 -42 35 -34 48 3 5 16 7 29 4 13
-2 21 0 18 4 -3 5 -14 9 -25 9 -10 0 -19 7 -19 15 0 9 6 12 18 8 14 -5 14 -3
-2 9 -12 9 -17 21 -13 32 4 9 2 16 -4 16 -6 0 -3 7 5 16 17 17 21 29 7 20 -11
-7 -21 40 -10 51 5 5 5 22 0 38 -5 22 -3 37 8 55 10 14 11 21 4 17 -8 -5 -13
-3 -13 7 0 20 5 20 24 0 9 -8 16 -11 16 -4 0 6 -11 15 -25 22 -13 6 -22 15
-19 20 3 4 10 5 16 2 6 -4 5 3 -2 16 -10 18 -8 25 7 43 18 21 18 21 -1 7 -18
-14 -18 -13 -11 9 5 17 4 21 -5 16 -9 -6 -9 -2 0 15 8 15 9 25 2 32 -16 16 6
58 27 51 13 -4 13 -3 2 5 -8 6 -21 8 -29 5 -12 -5 -12 -2 -4 14 6 11 8 23 5
27 -3 3 -1 6 6 6 7 0 11 -6 8 -14 -6 -15 17 -16 30 -1 5 4 2 5 -6 0 -11 -6
-13 -4 -8 9 4 9 3 15 -2 11 -12 -7 -43 24 -38 39 2 6 16 11 30 11 14 -1 23 3
21 7 -3 4 -14 8 -25 8 -10 0 -19 7 -19 15 0 9 6 12 18 8 14 -5 14 -3 -2 9 -12
9 -17 21 -13 32 4 9 2 16 -4 16 -6 0 -3 7 5 16 18 17 21 28 6 19 -6 -3 -10 4
-10 17 l1 23 19 -24 c11 -13 20 -20 20 -15 0 4 -8 16 -17 27 -20 21 -26 91
-11 121 6 10 6 16 1 13 -12 -7 -11 144 1 162 6 9 5 12 -1 8 -5 -4 -10 6 -10
23 0 16 5 27 10 23 5 -3 4 4 -2 14 -13 26 -11 123 3 142 8 11 8 13 -1 8 -9 -6
-11 14 -11 76 2 92 -5 111 -42 115 -35 4 -41 4 -72 -1 -16 -2 -25 0 -22 5 4 6
-1 7 -12 1 -29 -13 -109 -9 -128 7 -13 10 -16 10 -14 1 3 -15 -29 -24 -38 -10
-3 5 -13 5 -25 -1 -14 -8 -19 -7 -19 2 0 8 -3 9 -8 3 -4 -5 -16 -10 -27 -10
-11 0 -23 5 -27 10 -5 6 -8 5 -8 -4 0 -11 -3 -11 -15 -1 -9 7 -15 8 -15 2 0
-11 -18 -11 -38 2 -7 4 -18 4 -25 -1 -13 -10 -66 -11 -82 -2 -9 5 -31 5 -37
-1 -11 -8 -38 -6 -38 3 0 7 -5 5 -10 -3 -9 -13 -10 -13 -10 0 0 9 -3 11 -8 5
-9 -14 -45 -14 -54 0 -5 7 -8 7 -8 0 0 -6 -11 -11 -25 -11 -14 0 -25 5 -25 11
0 7 -3 7 -8 0 -4 -6 -16 -11 -27 -11 -11 0 -23 5 -27 11 -5 6 -8 6 -8 -2 0
-12 -17 -12 -36 0 -6 3 -14 3 -18 0 -12 -12 -56 -11 -56 1 0 7 -3 8 -8 1 -8
-12 -22 -13 -39 -2 -6 4 -14 3 -17 -1 -6 -10 -36 -9 -52 1 -6 3 -14 3 -18 -1
-12 -11 -66 -10 -66 2 0 6 -5 4 -10 -4 -9 -13 -10 -13 -10 0 0 9 -3 11 -8 5
-4 -6 -16 -11 -27 -11 -11 0 -23 5 -27 11 -5 7 -8 7 -8 -1 0 -13 -62 -13 -72
1 -5 6 -8 4 -8 -5 0 -13 -1 -13 -10 0 -8 12 -10 12 -10 1 0 -10 -3 -11 -13 -2
-8 6 -17 8 -21 4 -11 -12 -56 -11 -56 1 0 6 -4 5 -9 -3 -6 -9 -10 -10 -16 -2
-5 9 -10 9 -21 0 -11 -9 -14 -8 -14 2 0 10 -3 10 -8 3 -9 -15 -103 -15 -121 0
-11 8 -13 8 -7 -1 4 -8 1 -13 -8 -13 -9 0 -16 6 -16 13 0 8 -3 8 -8 1 -9 -14
-84 -15 -75 -1 4 6 1 7 -8 1 -20 -13 -120 -14 -112 -1 4 6 1 7 -8 1 -22 -13
-47 -15 -54 -3 -5 6 -12 6 -22 -3 -19 -15 -23 -15 -34 4 -5 7 -9 8 -9 2 0 -11
-35 -12 -46 -1 -4 4 -13 2 -21 -4 -9 -8 -17 -8 -26 0 -8 6 -17 7 -21 3 -11
-10 -30 -9 -38 2 -4 6 -11 6 -20 0 -15 -11 -68 -12 -85 -1 -7 5 -13 4 -13 -1
0 -10 -30 -9 -48 2 -6 4 -12 4 -12 -1 0 -4 -11 -8 -25 -8 -14 0 -25 4 -25 8 0
5 -6 5 -12 0 -19 -11 -37 -12 -44 -2 -3 5 -11 6 -17 2 -17 -10 -51 -10 -59 1
-4 6 -12 5 -20 -2 -11 -9 -20 -8 -38 5 -13 9 -20 12 -17 6z m-143 -493 c0 -5
-4 -10 -10 -10 -5 0 -10 5 -10 10 0 6 5 10 10 10 6 0 10 -4 10 -10z m-10 -500
c0 -5 -5 -10 -11 -10 -5 0 -7 5 -4 10 3 6 8 10 11 10 2 0 4 -4 4 -10z m2545
-869 c3 -5 2 -12 -3 -15 -5 -3 -9 1 -9 9 0 17 3 19 12 6z m-48 -17 c-3 -3 -12
-4 -19 -1 -8 3 -5 6 6 6 11 1 17 -2 13 -5z m-2313 -26 c9 -12 16 -19 16 -14 0
5 7 3 15 -4 9 -7 15 -8 15 -2 0 5 6 12 14 15 9 4 13 0 12 -11 -2 -9 -11 -17
-22 -17 -10 1 -22 -3 -25 -9 -4 -5 -12 1 -18 12 -7 13 -18 19 -31 17 -12 -2
-18 0 -15 6 4 5 11 7 16 4 5 -4 9 -2 9 4 0 5 -6 12 -12 14 -10 4 -10 6 -1 6 6
1 19 -9 27 -21z m56 12 c-18 -12 -30 -13 -30 -2 0 4 10 9 22 9 18 2 20 0 8 -7z
m45 -20 c3 -5 1 -10 -4 -10 -6 0 -11 5 -11 10 0 6 2 10 4 10 3 0 8 -4 11 -10z
m380 -119 c-3 -5 2 -17 11 -25 8 -9 10 -16 4 -16 -6 0 -13 7 -16 15 -4 8 -11
12 -18 8 -6 -4 -5 1 3 10 14 18 26 23 16 8z m240 0 c-3 -5 2 -17 11 -25 8 -9
10 -16 4 -16 -6 0 -13 7 -16 15 -5 13 -9 13 -34 0 -37 -19 -40 -19 -40 3 0 14
2 15 10 2 8 -12 10 -12 10 5 0 14 3 16 8 8 6 -10 12 -10 28 2 22 17 27 18 19
6z m240 0 c-3 -5 2 -17 11 -25 8 -9 10 -16 4 -16 -6 0 -13 7 -16 15 -4 8 -11
12 -18 8 -6 -4 -5 1 3 10 14 18 26 23 16 8z m240 0 c-3 -5 2 -17 11 -25 8 -9
10 -16 4 -16 -6 0 -13 7 -16 15 -5 13 -9 13 -34 0 -37 -19 -40 -19 -40 3 0 14
2 15 10 2 8 -12 10 -12 10 5 0 14 3 16 8 8 6 -10 12 -10 28 2 22 17 27 18 19
6z m240 0 c-3 -5 2 -17 11 -25 8 -9 10 -16 4 -16 -6 0 -13 7 -16 15 -4 8 -11
12 -18 8 -6 -4 -5 1 3 10 14 18 26 23 16 8z m240 0 c-3 -5 2 -17 11 -25 8 -9
10 -16 4 -16 -6 0 -13 7 -16 15 -5 13 -9 13 -34 0 -37 -19 -40 -19 -40 3 0 14
2 15 10 2 8 -12 10 -12 10 5 0 14 3 16 8 8 6 -10 12 -10 28 2 22 17 27 18 19
6z m240 -1 c3 -5 1 -10 -4 -10 -6 0 -11 5 -11 10 0 6 2 10 4 10 3 0 8 -4 11
-10z m-1305 -15 c9 2 17 -5 17 -16 2 -23 -15 -35 -30 -20 -8 8 -6 11 7 11 9 0
14 5 11 10 -4 7 -12 7 -25 0 -26 -14 -30 -13 -30 8 0 14 2 15 10 2 8 -12 10
-12 10 5 0 12 3 16 8 9 4 -6 14 -10 22 -9z m480 0 c9 2 17 -5 17 -16 2 -23
-15 -35 -30 -20 -8 8 -6 11 7 11 9 0 14 5 11 10 -4 7 -12 7 -25 0 -26 -14 -30
-13 -30 8 0 14 2 15 10 2 8 -12 10 -12 10 5 0 12 3 16 8 9 4 -6 14 -10 22 -9z
m480 0 c9 2 17 -5 17 -16 2 -23 -15 -35 -30 -20 -8 8 -6 11 7 11 9 0 14 5 11
10 -4 7 -12 7 -25 0 -26 -14 -30 -13 -30 8 0 14 2 15 10 2 8 -12 10 -12 10 5
0 12 3 16 8 9 4 -6 14 -10 22 -9z m480 0 c9 2 17 -5 17 -16 2 -23 -15 -35 -30
-20 -8 8 -6 11 7 11 9 0 14 5 11 10 -4 7 -12 7 -25 0 -26 -14 -30 -13 -30 8 0
14 2 15 10 2 8 -12 10 -12 10 5 0 12 3 16 8 9 4 -6 14 -10 22 -9z m-1526 -11
c5 -14 4 -15 -9 -4 -17 14 -19 20 -6 20 5 0 12 -7 15 -16z m480 0 c5 -14 4
-15 -9 -4 -17 14 -19 20 -6 20 5 0 12 -7 15 -16z m480 0 c5 -14 4 -15 -9 -4
-17 14 -19 20 -6 20 5 0 12 -7 15 -16z m-1029 -32 c-3 -3 -11 0 -18 7 -9 10
-8 11 6 5 10 -3 15 -9 12 -12z m960 0 c-3 -3 -11 0 -18 7 -9 10 -8 11 6 5 10
-3 15 -9 12 -12z"/>
<path d="M3055 2520 c-3 -5 -1 -10 4 -10 6 0 11 5 11 10 0 6 -2 10 -4 10 -3 0
-8 -4 -11 -10z"/>
<path d="M3030 2450 c0 -5 5 -10 11 -10 5 0 7 5 4 10 -3 6 -8 10 -11 10 -2 0
-4 -4 -4 -10z"/>
<path d="M3075 2411 c-3 -5 -2 -12 3 -15 5 -3 9 1 9 9 0 17 -3 19 -12 6z"/>
<path d="M3034 2390 c0 -9 5 -17 11 -17 6 0 11 8 11 17 0 9 -5 17 -11 17 -6 0
-11 -8 -11 -17z"/>
<path d="M210 2380 c0 -5 5 -10 10 -10 6 0 10 5 10 10 0 6 -4 10 -10 10 -5 0
-10 -4 -10 -10z"/>
<path d="M3033 2315 c0 -14 3 -25 6 -25 4 0 7 11 7 25 0 14 -3 25 -7 25 -3 0
-6 -11 -6 -25z"/>
<path d="M216 2287 c3 -10 9 -15 12 -12 3 3 0 11 -7 18 -10 9 -11 8 -5 -6z"/>
<path d="M200 2231 c-7 -15 -7 -22 2 -27 7 -4 10 -4 6 1 -4 4 -3 16 3 26 5 11
7 19 5 19 -3 0 -10 -9 -16 -19z"/>
<path d="M3075 2200 c-3 -5 -1 -10 4 -10 6 0 11 5 11 10 0 6 -2 10 -4 10 -3 0
-8 -4 -11 -10z"/>
<path d="M210 2180 c0 -5 5 -10 10 -10 6 0 10 5 10 10 0 6 -4 10 -10 10 -5 0
-10 -4 -10 -10z"/>
<path d="M3038 2163 c7 -3 16 -2 19 1 4 3 -2 6 -13 5 -11 0 -14 -3 -6 -6z"/>
<path d="M3035 2120 c3 -5 8 -10 11 -10 2 0 4 5 4 10 0 6 -5 10 -11 10 -5 0
-7 -4 -4 -10z"/>
<path d="M210 2079 c0 -5 5 -7 10 -4 6 3 10 8 10 11 0 2 -4 4 -10 4 -5 0 -10
-5 -10 -11z"/>
<path d="M3046 2057 c3 -10 9 -15 12 -12 3 3 0 11 -7 18 -10 9 -11 8 -5 -6z"/>
<path d="M210 1980 c0 -5 5 -10 10 -10 6 0 10 5 10 10 0 6 -4 10 -10 10 -5 0
-10 -4 -10 -10z"/>
<path d="M3035 1960 c3 -5 8 -10 11 -10 2 0 4 5 4 10 0 6 -5 10 -11 10 -5 0
-7 -4 -4 -10z"/>
<path d="M215 1938 c1 -13 6 -21 11 -19 10 3 7 21 -5 34 -4 4 -7 -3 -6 -15z"/>
<path d="M180 1866 c0 -2 8 -10 18 -17 15 -13 16 -12 3 4 -13 16 -21 21 -21
13z"/>
<path d="M3040 1860 c-9 -6 -10 -10 -3 -10 6 0 15 5 18 10 8 12 4 12 -15 0z"/>
<path d="M3035 1831 c-3 -5 -2 -12 3 -15 5 -3 9 1 9 9 0 17 -3 19 -12 6z"/>
<path d="M206 1818 c3 -5 10 -6 15 -3 13 9 11 12 -6 12 -8 0 -12 -4 -9 -9z"/>
<path d="M3020 1738 c0 -4 4 -8 9 -8 6 0 12 4 15 8 3 5 -1 9 -9 9 -8 0 -15 -4
-15 -9z"/>
<path d="M203 1675 c-3 -9 -3 -18 -1 -21 3 -3 8 4 11 16 6 23 -1 27 -10 5z"/>
<path d="M197 1605 c-4 -8 -1 -14 6 -12 7 1 11 -4 10 -10 -2 -7 2 -13 7 -13
14 0 12 11 -4 33 -12 15 -14 15 -19 2z"/>
<path d="M3050 1600 c0 -5 5 -10 11 -10 5 0 7 5 4 10 -3 6 -8 10 -11 10 -2 0
-4 -4 -4 -10z"/>
<path d="M3037 1573 c-4 -6 0 -13 8 -17 8 -3 17 0 21 6 4 6 3 8 -4 4 -5 -3
-12 -1 -14 6 -3 8 -6 9 -11 1z"/>
<path d="M3035 1480 c3 -5 8 -10 11 -10 2 0 4 5 4 10 0 6 -5 10 -11 10 -5 0
-7 -4 -4 -10z"/>
<path d="M217 1383 c3 -7 6 -13 8 -13 2 0 5 6 8 13 3 8 -1 14 -8 14 -7 0 -11
-6 -8 -14z"/>
<path d="M190 1381 c0 -6 4 -13 10 -16 6 -3 7 1 4 9 -7 18 -14 21 -14 7z"/>
<path d="M3034 1374 c-18 -14 -18 -15 4 -4 12 6 22 13 22 15 0 8 -5 6 -26 -11z"/>
<path d="M201 1339 c-1 -9 7 -23 17 -30 15 -12 16 -12 6 1 -6 8 -14 22 -17 30
-5 13 -6 12 -6 -1z"/>
<path d="M3035 1320 c3 -5 8 -10 11 -10 2 0 4 5 4 10 0 6 -5 10 -11 10 -5 0
-7 -4 -4 -10z"/>
<path d="M213 1255 c0 -8 4 -12 9 -9 5 3 6 10 3 15 -9 13 -12 11 -12 -6z"/>
<path d="M3042 1256 c7 -8 15 -12 17 -11 5 6 -10 25 -20 25 -5 0 -4 -6 3 -14z"/>
<path d="M205 1220 c-3 -6 1 -7 9 -4 18 7 21 14 7 14 -6 0 -13 -4 -16 -10z"/>
<path d="M3040 1220 c-9 -6 -10 -10 -3 -10 6 0 15 5 18 10 8 12 4 12 -15 0z"/>
<path d="M3035 1191 c-3 -5 -2 -12 3 -15 5 -3 9 1 9 9 0 17 -3 19 -12 6z"/>
<path d="M190 1141 c0 -6 4 -13 10 -16 6 -3 7 1 4 9 -7 18 -14 21 -14 7z"/>
<path d="M195 1100 c-3 -5 -1 -10 4 -10 6 0 11 5 11 10 0 6 -2 10 -4 10 -3 0
-8 -4 -11 -10z"/>
<path d="M3026 1098 c3 -5 10 -6 15 -3 13 9 11 12 -6 12 -8 0 -12 -4 -9 -9z"/>
<path d="M195 1069 c-4 -6 -5 -12 -2 -15 2 -3 7 2 10 11 7 17 1 20 -8 4z"/>
<path d="M3026 978 c3 -5 10 -6 15 -3 13 9 11 12 -6 12 -8 0 -12 -4 -9 -9z"/>
<path d="M3050 960 c0 -5 5 -10 11 -10 5 0 7 5 4 10 -3 6 -8 10 -11 10 -2 0
-4 -4 -4 -10z"/>
<path d="M205 900 c-3 -5 -1 -10 4 -10 6 0 11 5 11 10 0 6 -2 10 -4 10 -3 0
-8 -4 -11 -10z"/>
<path d="M3030 865 c0 -8 4 -15 8 -15 5 0 9 7 9 15 0 8 -4 15 -9 15 -4 0 -8
-7 -8 -15z"/>
<path d="M2996 827 c-13 -19 -14 -30 -6 -48 10 -23 10 -23 5 4 -5 25 1 32 27
28 7 -1 4 26 -4 35 -4 3 -14 -5 -22 -19z"/>
<path d="M230 809 c-13 -9 -12 -10 3 -5 16 5 25 -8 10 -17 -5 -2 -2 -2 5 -1 6
2 12 -1 12 -5 0 -5 -6 -11 -12 -14 -7 -3 -3 -4 9 -4 20 1 21 3 7 29 -17 32
-14 31 -34 17z"/>
<path d="M190 799 c0 -5 5 -7 10 -4 6 3 10 8 10 11 0 2 -4 4 -10 4 -5 0 -10
-5 -10 -11z"/>
<path d="M2940 783 c0 -22 4 -27 25 -30 15 -2 16 -1 6 6 -7 5 -17 15 -22 22
-6 10 -9 11 -9 2z"/>
<path d="M216 767 c3 -10 9 -15 12 -12 3 3 0 11 -7 18 -10 9 -11 8 -5 -6z"/>
<path d="M246 738 c3 -5 10 -6 15 -3 13 9 11 12 -6 12 -8 0 -12 -4 -9 -9z"/>
<path d="M2791 736 c-9 -10 -9 -16 -1 -21 16 -10 31 7 21 23 -6 10 -10 10 -20
-2z"/>
<path d="M2897 736 c-4 -9 -10 -15 -15 -12 -4 2 -14 0 -22 -5 -11 -7 -7 -8 14
-5 34 6 39 11 34 27 -3 9 -7 7 -11 -5z"/>
<path d="M307 723 c3 -7 6 -13 8 -13 1 0 7 6 13 13 8 10 6 13 -7 13 -11 0 -17
-6 -14 -13z"/>
<path d="M2906 698 c3 -5 10 -6 15 -3 13 9 11 12 -6 12 -8 0 -12 -4 -9 -9z"/>
<path d="M396 682 c-3 -5 1 -9 9 -9 8 0 12 4 9 9 -3 4 -7 8 -9 8 -2 0 -6 -4
-9 -8z"/>
<path d="M497 673 c-13 -12 -7 -22 12 -20 15 1 17 4 9 14 -12 15 -13 15 -21 6z"/>
<path d="M511 624 c0 -11 3 -14 6 -6 3 7 2 16 -1 19 -3 4 -6 -2 -5 -13z"/>
<path d="M2686 612 c-2 -4 -1 -14 4 -22 7 -11 9 -9 7 8 -1 24 -3 26 -11 14z"/>
<path d="M1757 573 c-4 -7 -21 -10 -37 -8 -18 2 -37 -3 -48 -13 -9 -9 -13 -14
-8 -9 17 12 29 8 17 -7 -9 -11 -9 -16 1 -22 7 -4 10 -4 6 1 -11 11 12 36 25
28 6 -4 7 -1 2 7 -5 8 -3 11 6 8 8 -3 13 -11 12 -17 -2 -6 2 -11 7 -11 6 0 10
7 10 15 0 20 18 19 22 0 2 -13 5 -12 15 4 9 15 10 22 1 27 -7 4 -8 3 -4 -4 4
-7 3 -12 -3 -12 -5 0 -11 5 -13 12 -3 9 -6 9 -11 1z"/>
<path d="M687 519 c7 -7 15 -10 18 -7 3 3 -2 9 -12 12 -14 6 -15 5 -6 -5z"/>
<path d="M751 513 c7 -12 15 -20 18 -17 3 2 -3 12 -13 22 -17 16 -18 16 -5 -5z"/>
<path d="M915 510 c10 -11 20 -20 23 -20 3 0 -3 9 -13 20 -10 11 -20 20 -23
20 -3 0 3 -9 13 -20z"/>
<path d="M1180 520 c-9 -6 -10 -10 -3 -10 6 0 15 5 18 10 8 12 4 12 -15 0z"/>
<path d="M2140 520 c-9 -6 -10 -10 -3 -10 6 0 15 5 18 10 8 12 4 12 -15 0z"/>
<path d="M2271 513 c7 -12 15 -20 18 -17 3 2 -3 12 -13 22 -17 16 -18 16 -5
-5z"/>
<path d="M2320 520 c-9 -6 -10 -10 -3 -10 6 0 15 5 18 10 8 12 4 12 -15 0z"/>
<path d="M2055 511 c-3 -5 -2 -12 3 -15 5 -3 9 1 9 9 0 17 -3 19 -12 6z"/>
<path d="M2535 511 c-3 -5 -2 -12 3 -15 5 -3 9 1 9 9 0 17 -3 19 -12 6z"/>
<path d="M2159 493 c-13 -16 -12 -17 4 -4 16 13 21 21 13 21 -2 0 -10 -8 -17
-17z"/>
</g>
</svg>
